<svg width="120" height="120" viewBox="0 0 120 120" fill="none" xmlns="http://www.w3.org/2000/svg">
<circle cx="60" cy="60" r="60" fill="#00B812"/>
<path fill-rule="evenodd" clip-rule="evenodd" d="M60 59.026C69.4677 59.026 77.1429 66.4394 77.1429 75.5845C77.1429 84.7294 69.4677 92.1429 60 92.1429C50.5323 92.1429 42.8571 84.7294 42.8571 75.5845C42.8571 66.4394 50.5323 59.026 60 59.026ZM60.0001 66.543C54.8306 66.543 50.6399 70.5909 50.6399 75.5842C50.6399 80.5774 54.8306 84.6253 60.0001 84.6253C65.1696 84.6253 69.3603 80.5774 69.3603 75.5842C69.3603 70.5909 65.1696 66.543 60.0001 66.543ZM65.574 27.8571V53.863H55.4776V36.2288H46.4329L49.2898 27.8571H65.574Z" fill="white"/>
</svg>
